# xmcd
#
# Track frame offsets: 
#        150
#        15955
#        29753
#        44427
#        65221
#        82058
#        99126
#        112451
#        131896
#        146949
#        163854
#        184164
#        197132
#        209405
#        227658
#        239721
#        258674
#        273968
#
# Disc length: 3836 seconds
#
# Revision: 2
# Processed by: cddbd v1.5.2PL0 Copyright (c) Steve Scherf et al.
# Submitted via: ExactAudioCopyFreeDBPlugin 1.0
#
DISCID=200efa12
DTITLE=Delta Boys - Rough and Easy
DYEAR=2014
DGENRE=Blues
TTITLE0=I saw the light
TTITLE1=Let me play with your poodle
TTITLE2=Memory pain
TTITLE3=Love crazy
TTITLE4=Over the hill
TTITLE5=Kind of man
TTITLE6=Your mind is on vacation
TTITLE7=Swing along
TTITLE8=You can't judge a book
TTITLE9=Blues is a woman
TTITLE10=Bluelight Boogie
TTITLE11=Shine
TTITLE12=Can't get no loving on the telephone
TTITLE13=I'll fly away
TTITLE14=When you're smiling
TTITLE15=If the river was whiskey
TTITLE16=Someday
TTITLE17=Glory of love
EXTD=
EXTT0=
EXTT1=
EXTT2=
EXTT3=
EXTT4=
EXTT5=
EXTT6=
EXTT7=
EXTT8=
EXTT9=
EXTT10=
EXTT11=
EXTT12=
EXTT13=
EXTT14=
EXTT15=
EXTT16=
EXTT17=
PLAYORDER=
